<?xml version="1.0" standalone="no"?>
<!DOCTYPE svg PUBLIC "-//W3C//DTD SVG 20010904//EN"
 "http://www.w3.org/TR/2001/REC-SVG-20010904/DTD/svg10.dtd">
<svg version="1.0" xmlns="http://www.w3.org/2000/svg"
 width="467.000000pt" height="176.000000pt" viewBox="0 0 467.000000 176.000000"
 preserveAspectRatio="xMidYMid meet">

<g transform="translate(0.000000,176.000000) scale(0.100000,-0.100000)"
fill="#000000" stroke="none">
<path d="M722 1668 c-79 -18 -120 -81 -137 -210 l-6 -48 -157 0 c-181 0 -219
-8 -273 -57 l-39 -35 0 -548 0 -547 23 -44 c16 -30 36 -51 62 -64 39 -19 63
-20 758 -23 425 -2 752 1 799 7 89 10 121 27 153 82 19 33 20 52 20 579 0 505
-1 548 -18 573 -41 63 -89 76 -289 77 -165 2 -151 -5 -163 85 -9 64 -17 80
-73 138 l-46 47 -286 -1 c-157 -1 -304 -5 -328 -11z m565 -146 c15 -10 33 -57
33 -88 l0 -24 -300 0 -301 1 7 37 c4 20 11 47 15 60 l9 22 262 0 c145 0 268
-4 275 -8z m356 -353 c25 -34 19 -52 -46 -132 -73 -90 -317 -376 -349 -409
-38 -40 -75 -37 -138 13 -78 61 -88 114 -30 144 26 14 33 13 65 -2 l37 -18 36
41 c21 22 97 109 171 194 181 209 209 228 254 169z m-665 -196 c13 -5 14 -50
8 -332 -4 -179 -9 -333 -12 -342 -6 -22 -34 -29 -116 -29 l-67 0 -3 273 c-2
149 -1 308 2 352 5 79 5 80 35 87 30 7 126 1 153 -9z m-356 -442 l-3 -259 -89
0 -90 0 0 259 0 259 93 0 92 0 -3 -259z m966 129 l22 0 0 -195 0 -195 -78 0
c-118 0 -117 -1 -115 166 2 171 9 221 31 228 9 3 40 3 67 0 28 -2 60 -4 73 -4z
m-312 -257 c-3 -42 -6 -88 -6 -103 l0 -27 -84 -2 -83 -2 -7 32 c-9 49 -7 138
4 160 9 16 22 19 97 19 l86 0 -7 -77z"/>
<path d="M3367 1266 c-72 -26 -140 -93 -172 -169 -17 -42 -20 -145 -4 -201 17
-60 77 -117 189 -177 56 -29 116 -66 135 -82 30 -25 35 -34 35 -73 0 -103
-122 -128 -246 -50 l-59 37 -21 -25 c-12 -13 -30 -45 -39 -71 -18 -45 -18 -46
4 -69 13 -13 53 -39 89 -57 56 -28 81 -34 154 -37 76 -4 93 -1 140 20 112 52
174 155 165 278 -2 36 -12 80 -21 99 -30 56 -97 114 -194 165 -165 88 -210
180 -112 231 45 23 82 18 155 -20 46 -25 71 -33 79 -26 6 6 25 37 41 70 28 60
28 61 9 82 -36 42 -177 90 -257 89 -18 -1 -49 -7 -70 -14z"/>
<path d="M4183 1265 c-116 -32 -193 -86 -256 -183 -71 -108 -77 -132 -77 -302
0 -171 11 -215 82 -321 80 -119 172 -164 338 -164 95 1 112 4 175 31 l70 31 3
241 2 242 -135 0 c-122 0 -137 -2 -155 -20 -25 -25 -27 -95 -4 -128 13 -19 24
-22 75 -22 l59 0 0 -62 c0 -35 -3 -80 -6 -100 l-7 -38 -65 0 c-118 0 -203 67
-238 189 -23 78 -15 222 15 285 61 124 210 181 347 131 77 -27 84 -21 84 73 0
52 -4 83 -13 90 -19 16 -142 42 -195 41 -26 0 -71 -7 -99 -14z"/>
<path d="M2228 778 l2 -478 90 0 90 0 1 218 c1 119 4 255 7 301 l7 84 73 -190
c90 -232 101 -253 142 -253 36 0 34 -5 135 268 37 100 71 184 75 187 4 3 11
-135 15 -305 l7 -310 84 0 84 0 0 481 0 482 -46 -7 c-26 -3 -75 -6 -109 -6
l-61 0 -69 -182 c-37 -101 -79 -208 -92 -238 l-25 -55 -20 40 c-12 22 -54 128
-95 235 -41 107 -76 196 -78 198 -2 2 -52 5 -112 5 l-108 2 3 -477z"/>
</g>
</svg>
