<?xml version="1.0" standalone="no"?>
<!DOCTYPE svg PUBLIC "-//W3C//DTD SVG 20010904//EN"
 "http://www.w3.org/TR/2001/REC-SVG-20010904/DTD/svg10.dtd">
<svg version="1.0" xmlns="http://www.w3.org/2000/svg"
 width="500.000000pt" height="500.000000pt" viewBox="0 0 500.000000 500.000000"
 preserveAspectRatio="xMidYMid meet">

<g transform="translate(0.000000,500.000000) scale(0.100000,-0.100000)"
fill="#000000" stroke="none">
<path d="M1292 3164 c-48 -24 -75 -68 -80 -131 l-4 -53 -117 0 c-138 0 -181
-10 -215 -51 l-26 -31 0 -406 c0 -386 1 -409 20 -439 43 -72 8 -68 665 -68
657 0 622 -4 665 68 19 30 20 53 20 438 0 402 0 407 -22 434 -35 44 -74 55
-207 55 l-119 0 -7 56 c-6 47 -14 64 -45 98 l-39 41 -228 3 c-196 2 -233 0
-261 -14z m452 -110 c9 -8 16 -29 16 -45 l0 -29 -223 0 -223 0 4 38 c3 20 10
40 16 44 6 4 97 8 203 8 161 0 194 -3 207 -16z m261 -258 c14 -20 14 -29 4
-48 -9 -18 -101 -130 -129 -158 -3 -3 -30 -34 -60 -70 -30 -36 -63 -74 -73
-85 -11 -11 -26 -30 -34 -42 -11 -16 -25 -23 -49 -23 -19 0 -34 4 -34 8 0 4
-13 16 -30 25 -55 33 -63 87 -15 109 17 8 28 6 47 -6 25 -16 26 -15 64 27 43
48 66 75 139 162 108 130 139 149 170 101z m-526 -142 l31 -6 0 -253 c0 -206
-3 -255 -14 -264 -9 -7 -38 -11 -73 -9 l-58 3 -3 262 c-2 243 -1 262 15 266
28 7 68 8 102 1z m-241 -336 l-3 -193 -65 0 -65 0 -3 193 -2 192 70 0 70 0 -2
-192z m737 -48 l0 -145 -62 -3 c-83 -4 -87 5 -81 158 3 65 8 122 12 129 5 8
30 11 69 9 l62 -3 0 -145z m-247 -67 l-3 -78 -65 0 -65 0 -3 64 c-4 90 -3 91
73 91 l66 0 -3 -77z"/>
<path d="M3290 2867 c-19 -6 -53 -30 -76 -52 -48 -49 -70 -118 -59 -187 15
-87 44 -118 175 -183 93 -47 114 -69 106 -114 -7 -44 -31 -60 -89 -61 -38 0
-58 7 -92 30 -24 17 -48 30 -54 30 -6 0 -21 -24 -35 -52 -29 -63 -25 -70 62
-113 81 -41 177 -41 244 -2 59 34 86 72 100 140 23 109 -31 197 -159 257 -110
52 -147 103 -110 151 35 45 83 47 149 3 21 -13 41 -24 46 -24 4 0 20 24 34 54
25 50 26 55 10 69 -60 53 -179 79 -252 54z"/>
<path d="M3885 2862 c-93 -32 -147 -80 -198 -177 -31 -58 -32 -65 -32 -180 0
-113 2 -124 31 -185 60 -127 146 -183 279 -183 65 0 91 5 138 26 l57 26 0 180
0 181 -109 0 c-120 0 -120 -1 -121 -72 0 -50 9 -58 62 -58 l49 0 -3 -72 -3
-73 -44 -3 c-62 -5 -86 3 -130 43 -52 47 -76 123 -68 216 6 74 21 110 61 151
57 57 148 74 223 43 60 -25 63 -23 63 55 0 68 -1 70 -27 76 -16 3 -44 10 -63
15 -53 13 -109 10 -165 -9z"/>
<path d="M2442 2503 l3 -358 65 0 65 0 5 232 5 232 43 -112 c24 -62 54 -139
67 -172 20 -52 26 -60 51 -63 28 -3 30 1 61 80 17 46 47 125 65 175 18 51 36
93 41 93 4 0 7 -106 7 -235 l0 -235 65 0 65 0 0 360 0 361 -81 -3 -81 -3 -65
-177 c-36 -98 -69 -178 -74 -178 -7 0 -48 101 -115 282 l-29 78 -83 0 -82 0 2
-357z"/>
</g>
</svg>
